<svg width="58" height="58" viewBox="0 0 58 58" fill="none" xmlns="http://www.w3.org/2000/svg">
    <line y1="28" x2="58" y2="28" stroke="#1C1C1C" stroke-width="2"/>
    <line x1="28" y1="58" x2="28" stroke="#1C1C1C" stroke-width="2"/>
    <path d="M13.7773 14.5742H10.1543L10.1348 12.7871H13.2988C13.8327 12.7871 14.2852 12.709 14.6562 12.5527C15.0339 12.39 15.3203 12.1589 15.5156 11.8594C15.7109 11.5534 15.8086 11.1855 15.8086 10.7559C15.8086 10.2806 15.7174 9.89323 15.5352 9.59375C15.3529 9.29427 15.0729 9.07617 14.6953 8.93945C14.3242 8.80273 13.849 8.73438 13.2695 8.73438H10.8965V21H8.44531V6.78125H13.2695C14.0508 6.78125 14.7474 6.85612 15.3594 7.00586C15.9779 7.1556 16.502 7.38997 16.9316 7.70898C17.3678 8.02148 17.6966 8.41862 17.918 8.90039C18.1458 9.38216 18.2598 9.95508 18.2598 10.6191C18.2598 11.2051 18.1198 11.7422 17.8398 12.2305C17.5599 12.7122 17.1465 13.1061 16.5996 13.4121C16.0527 13.7181 15.3724 13.9004 14.5586 13.959L13.7773 14.5742ZM13.6699 21H9.38281L10.4863 19.0566H13.6699C14.2233 19.0566 14.6855 18.9655 15.0566 18.7832C15.4277 18.5944 15.7044 18.3372 15.8867 18.0117C16.0755 17.6797 16.1699 17.2923 16.1699 16.8496C16.1699 16.3874 16.0885 15.987 15.9258 15.6484C15.763 15.3034 15.5059 15.0397 15.1543 14.8574C14.8027 14.6686 14.3438 14.5742 13.7773 14.5742H11.0234L11.043 12.7871H14.627L15.1836 13.4609C15.9648 13.487 16.6061 13.6595 17.1074 13.9785C17.6152 14.2975 17.9928 14.7109 18.2402 15.2188C18.4876 15.7266 18.6113 16.2734 18.6113 16.8594C18.6113 17.7643 18.4128 18.5228 18.0156 19.1348C17.625 19.7467 17.0618 20.2122 16.3262 20.5312C15.5905 20.8438 14.7051 21 13.6699 21Z" fill="#1C1C1C"/>
    <path d="M43.9824 8.67578L39.7344 21H37.166L42.5176 6.78125H44.1582L43.9824 8.67578ZM47.5371 21L43.2793 8.67578L43.0938 6.78125H44.7441L50.1152 21H47.5371ZM47.332 15.7266V17.6699H39.5977V15.7266H47.332Z" fill="#1C1C1C"/>
    <path d="M40.0098 49.8066L42.8418 38.7812H44.3262L44.1602 41.623L41.1328 53H39.5898L40.0098 49.8066ZM37.8906 38.7812L40.1855 49.7188L40.3906 53H38.75L35.459 38.7812H37.8906ZM47.5391 49.6895L49.8047 38.7812H52.2461L48.9551 53H47.3145L47.5391 49.6895ZM44.9023 38.7812L47.7051 49.8359L48.1152 53H46.5723L43.5938 41.623L43.4375 38.7812H44.9023Z" fill="#1C1C1C"/>
    </svg>
    