<svg width="58" height="58" viewBox="0 0 58 58" fill="none" xmlns="http://www.w3.org/2000/svg">
<line y1="28" x2="58" y2="28" stroke="#1C1C1C" stroke-width="2"/>
<line x1="28" y1="58" x2="28" stroke="#1C1C1C" stroke-width="2"/>
<path d="M14.2949 6.78125V21H11.8633V6.78125H14.2949ZM18.7578 6.78125V8.73438H7.43945V6.78125H18.7578Z" fill="#1C1C1C"/>
<path d="M43.7773 14.5742H40.1543L40.1348 12.7871H43.2988C43.8327 12.7871 44.2852 12.709 44.6562 12.5527C45.0339 12.39 45.3203 12.1589 45.5156 11.8594C45.7109 11.5534 45.8086 11.1855 45.8086 10.7559C45.8086 10.2806 45.7174 9.89323 45.5352 9.59375C45.3529 9.29427 45.0729 9.07617 44.6953 8.93945C44.3242 8.80273 43.849 8.73438 43.2695 8.73438H40.8965V21H38.4453V6.78125H43.2695C44.0508 6.78125 44.7474 6.85612 45.3594 7.00586C45.9779 7.1556 46.502 7.38997 46.9316 7.70898C47.3678 8.02148 47.6966 8.41862 47.918 8.90039C48.1458 9.38216 48.2598 9.95508 48.2598 10.6191C48.2598 11.2051 48.1198 11.7422 47.8398 12.2305C47.5599 12.7122 47.1465 13.1061 46.5996 13.4121C46.0527 13.7181 45.3724 13.9004 44.5586 13.959L43.7773 14.5742ZM43.6699 21H39.3828L40.4863 19.0566H43.6699C44.2233 19.0566 44.6855 18.9655 45.0566 18.7832C45.4277 18.5944 45.7044 18.3372 45.8867 18.0117C46.0755 17.6797 46.1699 17.2923 46.1699 16.8496C46.1699 16.3874 46.0885 15.987 45.9258 15.6484C45.763 15.3034 45.5059 15.0397 45.1543 14.8574C44.8027 14.6686 44.3438 14.5742 43.7773 14.5742H41.0234L41.043 12.7871H44.627L45.1836 13.4609C45.9648 13.487 46.6061 13.6595 47.1074 13.9785C47.6152 14.2975 47.9928 14.7109 48.2402 15.2188C48.4876 15.7266 48.6113 16.2734 48.6113 16.8594C48.6113 17.7643 48.4128 18.5228 48.0156 19.1348C47.625 19.7467 47.0618 20.2122 46.3262 20.5312C45.5905 20.8438 44.7051 21 43.6699 21Z" fill="#1C1C1C"/>
<path d="M46.8438 48.3711H49.2852C49.207 49.3021 48.9466 50.1322 48.5039 50.8613C48.0612 51.584 47.4395 52.1536 46.6387 52.5703C45.8379 52.987 44.8646 53.1953 43.7188 53.1953C42.8398 53.1953 42.0488 53.0391 41.3457 52.7266C40.6426 52.4076 40.0404 51.9583 39.5391 51.3789C39.0378 50.793 38.6536 50.0866 38.3867 49.2598C38.1263 48.4329 37.9961 47.5085 37.9961 46.4863V45.3047C37.9961 44.2826 38.1296 43.3581 38.3965 42.5312C38.6699 41.7044 39.0605 40.998 39.5684 40.4121C40.0762 39.8197 40.6849 39.3672 41.3945 39.0547C42.1107 38.7422 42.9147 38.5859 43.8066 38.5859C44.9395 38.5859 45.8965 38.7943 46.6777 39.2109C47.459 39.6276 48.0645 40.2038 48.4941 40.9395C48.9303 41.6751 49.1973 42.5182 49.2949 43.4688H46.8535C46.7884 42.8568 46.6452 42.3327 46.4238 41.8965C46.209 41.4603 45.89 41.1283 45.4668 40.9004C45.0436 40.666 44.4902 40.5488 43.8066 40.5488C43.2467 40.5488 42.7585 40.653 42.3418 40.8613C41.9251 41.0697 41.5768 41.3757 41.2969 41.7793C41.0169 42.1829 40.8053 42.681 40.6621 43.2734C40.5254 43.8594 40.457 44.5299 40.457 45.2852V46.4863C40.457 47.2025 40.5189 47.8535 40.6426 48.4395C40.7728 49.0189 40.9681 49.5169 41.2285 49.9336C41.4954 50.3503 41.834 50.6725 42.2441 50.9004C42.6543 51.1283 43.1458 51.2422 43.7188 51.2422C44.4154 51.2422 44.9785 51.1315 45.4082 50.9102C45.8444 50.6888 46.1732 50.3665 46.3945 49.9434C46.6224 49.5137 46.7721 48.9896 46.8438 48.3711Z" fill="#1C1C1C"/>
</svg>
