<?xml version="1.0" encoding="UTF-8"?>
<!DOCTYPE svg PUBLIC "-//W3C//DTD SVG 1.1//EN" "http://www.w3.org/Graphics/SVG/1.1/DTD/svg11.dtd">
<svg xmlns="http://www.w3.org/2000/svg" version="1.1" width="400px" height="400px" style="shape-rendering:geometricPrecision; text-rendering:geometricPrecision; image-rendering:optimizeQuality; fill-rule:evenodd; clip-rule:evenodd">
<g><path style="opacity:1" fill="none" d="M -0.5,-0.5 C 132.833,-0.5 266.167,-0.5 399.5,-0.5C 399.5,132.833 399.5,266.167 399.5,399.5C 266.167,399.5 132.833,399.5 -0.5,399.5C -0.5,266.167 -0.5,132.833 -0.5,-0.5 Z"/></g>
<g><path style="opacity:1" fill="#8fa2ab" d="M 181.5,106.5 C 181.5,124.833 181.5,143.167 181.5,161.5C 182.833,161.5 184.167,161.5 185.5,161.5C 184.432,162.434 183.099,162.768 181.5,162.5C 181.665,165.85 181.498,169.183 181,172.5C 180.215,174.286 179.049,175.786 177.5,177C 147.5,177.667 117.5,177.667 87.5,177C 85.6667,176.5 84.5,175.333 84,173.5C 83.5012,169.514 83.3345,165.514 83.5,161.5C 83.5,143.167 83.5,124.833 83.5,106.5C 83.3345,102.486 83.5012,98.4862 84,94.5C 85.1667,93.3333 86.3333,92.1667 87.5,91C 101.496,90.5001 115.496,90.3334 129.5,90.5C 129.666,86.1539 129.499,81.8206 129,77.5C 122.347,73.5999 120.847,68.2666 124.5,61.5C 128.72,56.8898 133.386,56.3898 138.5,60C 144.208,66.2526 143.542,71.7526 136.5,76.5C 135.507,81.1196 135.173,85.7863 135.5,90.5C 149.171,90.3334 162.837,90.5001 176.5,91C 178.667,91.8333 180.167,93.3333 181,95.5C 181.499,99.1516 181.665,102.818 181.5,106.5 Z"/></g>
<g><path style="opacity:1" fill="#c23230" d="M 130.5,63.5 C 136.02,64.0435 137.354,66.5435 134.5,71C 128.202,71.4954 126.868,68.9954 130.5,63.5 Z"/></g>
<g><path style="opacity:1" fill="#f0ab0f" d="M 282.5,71.5 C 291.573,69.8677 297.906,73.201 301.5,81.5C 308.842,71.6682 317.009,71.0015 326,79.5C 327.838,82.0373 328.671,84.8707 328.5,88C 327.501,95.4839 327.334,102.984 328,110.5C 331.054,113.942 333.054,117.942 334,122.5C 336.61,170.89 313.777,193.39 265.5,190C 240.837,182.664 227.004,166.164 224,140.5C 223.333,124.5 223.333,108.5 224,92.5C 228.032,84.9631 234.198,82.4631 242.5,85C 243.966,85.6355 245.3,86.4688 246.5,87.5C 248.372,81.229 252.372,77.0623 258.5,75C 264.947,74.0399 270.114,76.2066 274,81.5C 275.289,76.7209 278.123,73.3875 282.5,71.5 Z"/></g>
<g><path style="opacity:1" fill="#fec522" d="M 283.5,74.5 C 290.396,72.7796 295.23,75.1129 298,81.5C 298.5,90.8274 298.666,100.161 298.5,109.5C 291.188,110.347 283.854,111.013 276.5,111.5C 276.334,101.828 276.5,92.1609 277,82.5C 278.277,79.0618 280.443,76.3951 283.5,74.5 Z"/></g>
<g><path style="opacity:1" fill="#fec825" d="M 309.5,77.5 C 324.117,77.3476 328.95,84.3476 324,98.5C 322.409,104.918 318.576,109.252 312.5,111.5C 308.755,110.662 305.922,108.662 304,105.5C 303.333,98.5 303.333,91.5 304,84.5C 305.666,82.0043 307.5,79.671 309.5,77.5 Z"/></g>
<g><path style="opacity:1" fill="#fec826" d="M 258.5,77.5 C 264.477,77.071 268.977,79.4044 272,84.5C 273.378,91.9033 272.378,98.9033 269,105.5C 260.822,111.602 255.156,109.602 252,99.5C 251.333,94.1667 251.333,88.8333 252,83.5C 254.063,81.2659 256.229,79.2659 258.5,77.5 Z"/></g>
<g><path style="opacity:1" fill="#fec825" d="M 232.5,87.5 C 244.988,86.4941 249.821,92.1608 247,104.5C 243.627,112.701 238.127,114.535 230.5,110C 226.716,105.139 225.549,99.639 227,93.5C 228.36,90.9774 230.193,88.9774 232.5,87.5 Z"/></g>
<g><path style="opacity:1" fill="#c42c2b" d="M 83.5,106.5 C 83.5,124.833 83.5,143.167 83.5,161.5C 78.7203,162.359 75.2203,160.692 73,156.5C 72.3333,141.833 72.3333,127.167 73,112.5C 75.0794,108.043 78.5794,106.043 83.5,106.5 Z"/></g>
<g><path style="opacity:1" fill="#c6302e" d="M 181.5,106.5 C 186.382,106.175 189.882,108.175 192,112.5C 192.667,126.833 192.667,141.167 192,155.5C 191.246,159.089 189.079,161.089 185.5,161.5C 184.167,161.5 182.833,161.5 181.5,161.5C 181.5,143.167 181.5,124.833 181.5,106.5 Z"/></g>
<g><path style="opacity:1" fill="#515253" d="M 106.5,108.5 C 117.651,107.49 123.151,112.49 123,123.5C 119.195,132.881 112.695,135.381 103.5,131C 97.9569,125.49 97.1236,119.323 101,112.5C 102.812,111.023 104.645,109.69 106.5,108.5 Z"/></g>
<g><path style="opacity:1" fill="#f7f7f7" d="M 106.5,110.5 C 119.47,109.785 123.636,115.452 119,127.5C 111.872,133.341 105.872,132.341 101,124.5C 99.268,118.314 101.101,113.647 106.5,110.5 Z"/></g>
<g><path style="opacity:1" fill="#fec41e" d="M 325.5,123.5 C 327.68,125.031 328.68,127.198 328.5,130C 326.665,154.832 313.665,170.166 289.5,176C 267.28,178.639 250.447,170.472 239,151.5C 236.043,145.13 234.209,138.463 233.5,131.5C 241.223,132.637 247.223,129.971 251.5,123.5C 253.246,125.252 255.246,126.585 257.5,127.5C 258.79,145.626 268.457,153.793 286.5,152C 289.308,151.402 291.808,150.235 294,148.5C 294.399,148.728 294.565,149.062 294.5,149.5C 293.434,151.701 292.767,154.035 292.5,156.5C 293.675,156.719 294.675,156.386 295.5,155.5C 296.809,151.028 299.142,147.195 302.5,144C 303.635,143.251 304.635,143.417 305.5,144.5C 306.248,146.332 307.248,147.999 308.5,149.5C 309.833,150.833 311.167,150.833 312.5,149.5C 309.198,144.397 305.531,139.564 301.5,135C 299.5,134.333 297.5,133.667 295.5,133C 286.833,132.667 278.167,132.333 269.5,132C 263.458,128.252 261.958,123.085 265,116.5C 277.722,114.374 290.555,113.207 303.5,113C 311.812,114.701 319.145,118.201 325.5,123.5 Z"/></g>
<g><path style="opacity:1" fill="#febc11" d="M 233.5,131.5 C 234.209,138.463 236.043,145.13 239,151.5C 250.447,170.472 267.28,178.639 289.5,176C 313.665,170.166 326.665,154.832 328.5,130C 328.68,127.198 327.68,125.031 325.5,123.5C 326.319,120.695 326.819,117.695 327,114.5C 328.591,117.352 329.924,120.352 331,123.5C 334.254,146.76 326.754,165.593 308.5,180C 291.73,188.372 274.397,189.706 256.5,184C 234.675,171.517 225.175,152.684 228,127.5C 229.812,128.977 231.645,130.31 233.5,131.5 Z"/></g>
<g><path style="opacity:1" fill="#c23130" d="M 131.5,127.5 C 135.334,130.485 137.667,134.485 138.5,139.5C 134.5,139.5 130.5,139.5 126.5,139.5C 127.067,135.033 128.734,131.033 131.5,127.5 Z"/></g>
<g><path style="opacity:1" fill="#505152" d="M 156.5,130.5 C 162.684,127.796 164.85,123.129 163,116.5C 159.723,110.891 154.89,109.058 148.5,111C 142.124,115.429 140.957,120.929 145,127.5C 146.488,129.16 148.321,130.16 150.5,130.5C 150.918,131.222 151.584,131.722 152.5,132C 144.947,132.168 140.947,128.334 140.5,120.5C 143.464,108.687 150.464,105.521 161.5,111C 167.049,117.946 166.716,124.613 160.5,131C 158.934,131.765 157.601,131.598 156.5,130.5 Z"/></g>
<g><path style="opacity:1" fill="#f9f9f9" d="M 156.5,130.5 C 154.5,130.5 152.5,130.5 150.5,130.5C 148.321,130.16 146.488,129.16 145,127.5C 140.957,120.929 142.124,115.429 148.5,111C 154.89,109.058 159.723,110.891 163,116.5C 164.85,123.129 162.684,127.796 156.5,130.5 Z"/></g>
<g><path style="opacity:1" fill="#feb403" d="M 257.5,127.5 C 261.615,129.775 265.615,132.275 269.5,135C 278.167,135.333 286.833,135.667 295.5,136C 298.29,136.561 300.623,137.894 302.5,140C 299.217,142.772 296.55,145.939 294.5,149.5C 294.565,149.062 294.399,148.728 294,148.5C 291.808,150.235 289.308,151.402 286.5,152C 268.457,153.793 258.79,145.626 257.5,127.5 Z"/></g>
<g><path style="opacity:1" fill="#eeeeee" d="M 114.5,148.5 C 116.833,148.5 119.167,148.5 121.5,148.5C 121.5,152.833 121.5,157.167 121.5,161.5C 119.167,161.5 116.833,161.5 114.5,161.5C 114.5,157.167 114.5,152.833 114.5,148.5 Z"/></g>
<g><path style="opacity:1" fill="#eeefee" d="M 142.5,148.5 C 144.833,148.5 147.167,148.5 149.5,148.5C 149.5,152.833 149.5,157.167 149.5,161.5C 147.167,161.5 144.833,161.5 142.5,161.5C 142.5,157.167 142.5,152.833 142.5,148.5 Z"/></g>
<g><path style="opacity:1" fill="#f0f0f1" d="M 109.5,148.5 C 110.8,150.223 111.467,152.39 111.5,155C 112.093,161.088 110.593,162.255 107,158.5C 105.863,154.537 106.697,151.204 109.5,148.5 Z"/></g>
<g><path style="opacity:1" fill="#efefef" d="M 133.5,148.5 C 135.5,148.5 137.5,148.5 139.5,148.5C 139.5,152.833 139.5,157.167 139.5,161.5C 137.5,161.5 135.5,161.5 133.5,161.5C 133.5,157.167 133.5,152.833 133.5,148.5 Z"/></g>
<g><path style="opacity:1" fill="#f0f1f1" d="M 152.5,148.5 C 158.567,150.064 160.067,153.73 157,159.5C 155.915,160.293 154.748,160.96 153.5,161.5C 152.508,157.217 152.174,152.884 152.5,148.5 Z"/></g>
<g><path style="opacity:1" fill="#f1f2f2" d="M 124.5,148.5 C 126.5,148.5 128.5,148.5 130.5,148.5C 130.5,152.833 130.5,157.167 130.5,161.5C 128.5,161.5 126.5,161.5 124.5,161.5C 124.5,157.167 124.5,152.833 124.5,148.5 Z"/></g>
<g><path style="opacity:1" fill="#dfdfde" d="M 339.5,220.5 C 338.112,224.391 335.778,227.891 332.5,231C 328.296,233.264 324.296,235.764 320.5,238.5C 325.321,238.44 329.655,236.606 333.5,233C 335.025,231.991 336.692,231.491 338.5,231.5C 337.934,235.797 335.934,239.297 332.5,242C 327.156,245.674 321.49,248.84 315.5,251.5C 314.614,252.325 314.281,253.325 314.5,254.5C 320.224,252.14 325.891,249.473 331.5,246.5C 331.833,246.833 332.167,247.167 332.5,247.5C 329.727,251.777 326.393,255.61 322.5,259C 317.939,261.735 313.273,264.235 308.5,266.5C 311.947,267.054 315.28,267.054 318.5,266.5C 317.96,267.748 317.293,268.915 316.5,270C 311.659,272.701 306.992,275.535 302.5,278.5C 305.718,279.423 308.718,278.757 311.5,276.5C 312.402,279.56 311.402,282.06 308.5,284C 306.301,285.697 303.968,287.197 301.5,288.5C 300.167,289.5 300.167,290.5 301.5,291.5C 304.531,290.323 307.198,288.656 309.5,286.5C 309.918,287.222 310.584,287.722 311.5,288C 316.229,288.273 320.896,288.939 325.5,290C 324.952,300.073 320.952,308.739 313.5,316C 309.065,318.634 304.565,321.134 300,323.5C 296.925,320.884 294.425,317.718 292.5,314C 284.791,313.762 277.124,313.096 269.5,312C 253.333,307.009 244.333,296.176 242.5,279.5C 242.804,278.85 243.137,278.183 243.5,277.5C 240.328,275.668 238.328,273.001 237.5,269.5C 238.833,269.5 240.167,269.5 241.5,269.5C 241.726,266.751 241.393,264.084 240.5,261.5C 238.905,260.566 237.239,260.566 235.5,261.5C 235.5,259.5 235.5,257.5 235.5,255.5C 242.072,255.761 248.406,255.094 254.5,253.5C 260.037,254.33 264.704,256.664 268.5,260.5C 268.297,262.39 268.963,263.89 270.5,265C 272.569,266.874 274.902,267.874 277.5,268C 283.748,259.081 290.748,250.748 298.5,243C 297.663,241.989 297.33,240.822 297.5,239.5C 298.222,239.918 298.722,240.584 299,241.5C 309.55,230.142 322.384,222.809 337.5,219.5C 338.416,219.543 339.083,219.876 339.5,220.5 Z"/></g>
<g><path style="opacity:1" fill="#b0b0b0" d="M 297.5,239.5 C 297.33,240.822 297.663,241.989 298.5,243C 290.748,250.748 283.748,259.081 277.5,268C 274.902,267.874 272.569,266.874 270.5,265C 268.963,263.89 268.297,262.39 268.5,260.5C 269.119,245.42 275.786,233.92 288.5,226C 293.274,223.097 296.274,224.264 297.5,229.5C 296.905,231.857 295.905,234.023 294.5,236C 296.426,236.422 297.426,237.589 297.5,239.5 Z"/></g>
<g><path style="opacity:1" fill="#718142" d="M 254.5,253.5 C 248.406,255.094 242.072,255.761 235.5,255.5C 235.5,257.5 235.5,259.5 235.5,261.5C 234.329,262.345 232.995,263.011 231.5,263.5C 231.666,258.821 231.499,254.155 231,249.5C 227.328,244.544 224.662,239.211 223,233.5C 224.049,232.483 225.216,232.316 226.5,233C 231.216,237.161 234.049,242.328 235,248.5C 235.667,247.833 236.333,247.167 237,246.5C 237.678,241.143 237.511,235.809 236.5,230.5C 236.486,228.407 237.152,226.574 238.5,225C 239.996,224.493 241.163,224.993 242,226.5C 242.333,230.833 242.667,235.167 243,239.5C 247.199,234.966 251.699,230.799 256.5,227C 258.134,226.506 259.801,226.34 261.5,226.5C 262.178,230.273 260.844,233.106 257.5,235C 253.334,237.917 249.001,240.584 244.5,243C 249.132,242.607 253.799,242.607 258.5,243C 261.644,243.919 262.644,245.752 261.5,248.5C 259.727,249.087 257.894,249.42 256,249.5C 250.598,247.9 245.098,247.4 239.5,248C 239.043,248.414 238.709,248.914 238.5,249.5C 244.104,250.234 249.437,251.567 254.5,253.5 Z"/></g>
<g><path style="opacity:1" fill="#0a6fc3" d="M 131.5,232.5 C 109.019,242.174 89.5194,256.174 73,274.5C 72.5172,275.448 72.3505,276.448 72.5,277.5C 72.1583,278.338 71.4916,278.672 70.5,278.5C 70.1674,264.151 70.5007,249.818 71.5,235.5C 91.2041,227.184 111.204,226.184 131.5,232.5 Z"/></g>
<g><path style="opacity:1" fill="#b3b3b3" d="M 339.5,220.5 C 341.054,223.985 340.387,227.152 337.5,230C 339.646,230.479 340.646,231.812 340.5,234C 338.454,238.356 336.954,242.856 336,247.5C 333.102,253.732 328.769,258.732 323,262.5C 321.939,267.231 319.606,271.231 316,274.5C 315.755,279.569 313.588,283.569 309.5,286.5C 307.198,288.656 304.531,290.323 301.5,291.5C 300.167,290.5 300.167,289.5 301.5,288.5C 303.968,287.197 306.301,285.697 308.5,284C 311.402,282.06 312.402,279.56 311.5,276.5C 308.718,278.757 305.718,279.423 302.5,278.5C 306.992,275.535 311.659,272.701 316.5,270C 317.293,268.915 317.96,267.748 318.5,266.5C 315.28,267.054 311.947,267.054 308.5,266.5C 313.273,264.235 317.939,261.735 322.5,259C 326.393,255.61 329.727,251.777 332.5,247.5C 332.167,247.167 331.833,246.833 331.5,246.5C 325.891,249.473 320.224,252.14 314.5,254.5C 314.281,253.325 314.614,252.325 315.5,251.5C 321.49,248.84 327.156,245.674 332.5,242C 335.934,239.297 337.934,235.797 338.5,231.5C 336.692,231.491 335.025,231.991 333.5,233C 329.655,236.606 325.321,238.44 320.5,238.5C 324.296,235.764 328.296,233.264 332.5,231C 335.778,227.891 338.112,224.391 339.5,220.5 Z"/></g>
<g><path style="opacity:1" fill="#0262be" d="M 131.5,232.5 C 141.949,233.902 152.449,234.902 163,235.5C 170.93,235.214 178.764,234.214 186.5,232.5C 184.975,234.036 182.975,235.036 180.5,235.5C 178.209,240.256 174.875,244.089 170.5,247C 156.063,256.882 141.063,265.715 125.5,273.5C 107.387,269.735 89.7202,271.069 72.5,277.5C 72.3505,276.448 72.5172,275.448 73,274.5C 89.5194,256.174 109.019,242.174 131.5,232.5 Z"/></g>
<g><path style="opacity:1" fill="#0355b6" d="M 195.5,228.5 C 196.496,242.657 196.829,256.99 196.5,271.5C 182.706,276.903 168.373,278.903 153.5,277.5C 144.034,276.805 134.701,275.471 125.5,273.5C 141.063,265.715 156.063,256.882 170.5,247C 174.875,244.089 178.209,240.256 180.5,235.5C 182.975,235.036 184.975,234.036 186.5,232.5C 189.382,230.892 192.382,229.559 195.5,228.5 Z"/></g>
<g><path style="opacity:1" fill="#f9c220" d="M 237.5,269.5 C 236.221,268.032 234.554,267.365 232.5,267.5C 227.852,266.602 227.519,265.269 231.5,263.5C 232.995,263.011 234.329,262.345 235.5,261.5C 237.239,260.566 238.905,260.566 240.5,261.5C 241.393,264.084 241.726,266.751 241.5,269.5C 240.167,269.5 238.833,269.5 237.5,269.5 Z"/></g>
<g><path style="opacity:1" fill="#3e3e3e" d="M 248.5,262.5 C 252.692,262.403 254.025,264.236 252.5,268C 247.728,268.81 246.395,266.977 248.5,262.5 Z"/></g>
<g><path style="opacity:1" fill="#728240" d="M 232.5,267.5 C 234.554,267.365 236.221,268.032 237.5,269.5C 238.328,273.001 240.328,275.668 243.5,277.5C 243.137,278.183 242.804,278.85 242.5,279.5C 237.397,277.057 234.064,273.057 232.5,267.5 Z"/></g>
<g><path style="opacity:1" fill="none" d="M 195.5,228.5 C 195.56,227.957 195.893,227.624 196.5,227.5C 197.83,256.664 197.83,285.664 196.5,314.5C 196.5,300.167 196.5,285.833 196.5,271.5C 196.829,256.99 196.496,242.657 195.5,228.5 Z"/></g>
<g><path style="opacity:1" fill="#f9c708" d="M 196.5,271.5 C 196.5,285.833 196.5,300.167 196.5,314.5C 185.778,318.706 174.612,321.039 163,321.5C 145.778,319.846 128.612,317.679 111.5,315C 104.148,314.418 96.8149,314.585 89.5,315.5C 90.2625,314.732 91.2625,314.232 92.5,314C 101.54,313.453 110.54,313.453 119.5,314C 140.097,304.371 159.43,292.704 177.5,279C 169.323,278.829 161.323,278.329 153.5,277.5C 168.373,278.903 182.706,276.903 196.5,271.5 Z"/></g>
<g><path style="opacity:1" fill="#fcd105" d="M 125.5,273.5 C 134.701,275.471 144.034,276.805 153.5,277.5C 161.323,278.329 169.323,278.829 177.5,279C 159.43,292.704 140.097,304.371 119.5,314C 110.54,313.453 101.54,313.453 92.5,314C 91.2625,314.232 90.2625,314.732 89.5,315.5C 83.3288,316.89 77.3288,318.89 71.5,321.5C 70.5007,307.182 70.1674,292.849 70.5,278.5C 71.4916,278.672 72.1583,278.338 72.5,277.5C 89.7202,271.069 107.387,269.735 125.5,273.5 Z"/></g>
</svg>
